<svg width="34" height="34" viewBox="0 0 34 34" fill="none" xmlns="http://www.w3.org/2000/svg">
<path d="M17 1C19.8086 0.999992 22.5677 1.73928 25 3.14357C27.4323 4.54786 29.4521 6.56766 30.8564 8.99996C32.2607 11.4323 33 14.1914 33 16.9999C33 19.8085 32.2607 22.5676 30.8564 24.9999C29.4521 27.4323 27.4323 29.4521 25 30.8564C22.5677 32.2607 19.8086 33 17 33C14.1914 33 11.4323 32.2607 8.99998 30.8564C6.56767 29.4521 4.54787 27.4323 3.14359 24.9999C1.7393 22.5676 0.999998 19.8085 1 16.9999C1 14.1914 1.7393 11.4323 3.1436 8.99996C4.54789 6.56766 6.5677 4.54786 9.00001 3.14357C11.4323 1.73928 14.1914 0.999992 17 1V1ZM17 1L30.8564 24.9999H3.14359L17 1ZM27.2846 4.74333L22.4723 32.035L32.7569 14.2216L6.7154 4.74333L11.5277 32.035L1.24313 14.2216L27.2846 4.74333Z" stroke="#D4AF37" stroke-width="1.5" stroke-linecap="round" stroke-linejoin="round"/>
</svg>
