<svg width="186" height="186" viewBox="0 0 186 186" fill="none" xmlns="http://www.w3.org/2000/svg">
<path d="M93 3C108.798 2.99995 124.318 7.15847 138 15.0576C151.682 22.9567 163.043 34.3181 170.942 47.9998C178.841 61.6815 183 77.2014 183 92.9997C183 108.798 178.841 124.318 170.942 138C163.043 151.681 151.682 163.043 138 170.942C124.318 178.841 108.798 183 93 183C77.2017 183 61.6817 178.841 47.9999 170.942C34.3182 163.043 22.9568 151.681 15.0577 138C7.15854 124.318 2.99999 108.798 3 92.9997C3.00001 77.2014 7.15859 61.6815 15.0577 47.9998C22.9569 34.3181 34.3183 22.9567 48 15.0576C61.6818 7.15847 77.2017 2.99995 93 3V3ZM93 3L170.942 138H15.0577L93 3ZM150.851 24.0562L123.782 177.572L181.632 77.3713L35.1491 24.0562L62.2185 177.572L4.36761 77.3713L150.851 24.0562Z" stroke="#2C2C2C" stroke-width="6" stroke-linecap="round" stroke-linejoin="round"/>
</svg>
